<?xml version="1.0" encoding="UTF-8" standalone="no"?>
<!DOCTYPE svg PUBLIC "-//W3C//DTD SVG 1.1//EN" "http://www.w3.org/Graphics/SVG/1.1/DTD/svg11.dtd">
<svg width="100%" height="100%" viewBox="0 0 600 92" version="1.1" xmlns="http://www.w3.org/2000/svg" xmlns:xlink="http://www.w3.org/1999/xlink" xml:space="preserve" xmlns:serif="http://www.serif.com/" style="fill-rule:evenodd;clip-rule:evenodd;stroke-linejoin:round;stroke-miterlimit:2;">
    <g transform="matrix(1,0,0,1,-1187.71,-1413.47)">
        <g transform="matrix(0.0400444,0,0,0.0376372,1153.98,1362.57)">
            <path d="M1546.09,3718.92L1546.09,2915.59L2759.35,2915.59L2759.35,2400.28L1546.09,2400.28L1546.09,1927.13L2927.95,1927.13L2927.95,1415.13L842.35,1415.13L842.35,3718.92L1546.09,3718.92Z" style="fill-rule:nonzero;"/>
            <path d="M5063.56,3718.92L5063.56,3206.92L3840.38,3206.92L3840.38,2816.41L5000.75,2816.41L5000.75,2301.11L3840.38,2301.11L3840.38,1927.13L5063.56,1927.13L5063.56,1415.13L3136.64,1415.13L3136.64,3718.92L5063.56,3718.92Z" style="fill-rule:nonzero;"/>
            <g transform="matrix(1.07668,0,0,1,-410.375,0)">
                <path d="M7186.21,2859.45C7457.14,2763.66 7638.85,2562.16 7638.85,2162.04C7638.85,1524.14 7153.17,1415.13 6617.6,1415.13L5351.59,1415.13L5351.59,3718.92L6052.02,3718.92L6052.02,2938.73L6491.91,2938.73L6938.41,3718.92L7728.11,3718.92L7186.21,2859.45ZM6587.83,1927.13C6723.44,1927.13 6931.8,1933.74 6931.8,2168.66C6931.8,2416.81 6720.13,2423.43 6587.83,2423.43L6052.02,2423.43L6052.02,1927.13L6587.83,1927.13Z" style="fill-rule:nonzero;"/>
            </g>
            <g transform="matrix(1.07668,0,0,1,-410.375,0)">
                <path d="M9751.58,2859.45C10022.5,2763.66 10204.2,2562.16 10204.2,2162.04C10204.2,1524.14 9718.54,1415.13 9182.97,1415.13L7916.96,1415.13L7916.96,3718.92L8617.4,3718.92L8617.4,2938.73L9057.29,2938.73L9503.78,3718.92L10293.5,3718.92L9751.58,2859.45ZM9153.2,1927.13C9288.81,1927.13 9497.18,1933.74 9497.18,2168.66C9497.18,2416.81 9285.5,2423.43 9153.2,2423.43L8617.4,2423.43L8617.4,1927.13L9153.2,1927.13Z" style="fill-rule:nonzero;"/>
            </g>
            <g transform="matrix(0.904563,0,0,1,1274.25,0)">
                <path d="M11794.6,3781.73C12680.6,3781.73 13199.4,3306.03 13199.4,2568.68C13199.4,1824.72 12690.6,1352.32 11794.6,1352.32C10911.8,1352.32 10389.8,1831.33 10389.8,2568.68C10389.8,3302.72 10911.8,3781.73 11794.6,3781.73ZM11794.6,3203.62C11331.6,3203.62 11093.5,2962.21 11093.5,2568.68C11093.5,2175.15 11331.6,1930.43 11794.6,1930.43C12257.5,1930.43 12489,2178.46 12489,2568.68C12489,2955.59 12257.5,3203.62 11794.6,3203.62Z" style="fill-rule:nonzero;"/>
            </g>
            <path d="M15117.2,2681.06L14068.9,1415.13L13424.6,1415.13L13424.6,3718.92L14128.3,3718.92L14128.3,2443.08L15180,3718.92L15824.2,3718.92L15824.2,1415.13L15117.2,1415.13L15117.2,2681.06Z" style="fill-rule:nonzero;"/>
        </g>
    </g>
</svg>
