<?xml version="1.0" encoding="UTF-8" standalone="no"?>
<!DOCTYPE svg PUBLIC "-//W3C//DTD SVG 1.1//EN" "http://www.w3.org/Graphics/SVG/1.1/DTD/svg11.dtd">
<svg width="100%" height="100%" viewBox="0 0 600 92" version="1.1" xmlns="http://www.w3.org/2000/svg" xmlns:xlink="http://www.w3.org/1999/xlink" xml:space="preserve" xmlns:serif="http://www.serif.com/" style="fill-rule:evenodd;clip-rule:evenodd;stroke-linejoin:round;stroke-miterlimit:2;">
    <g transform="matrix(1,0,0,1,-1187.71,-1303.65)">
        <g transform="matrix(0.0362382,0,0,0.0376372,1163.3,1252.75)">
            <path d="M3410.62,3718.92L2415.69,1415.13L1675.28,1415.13L673.75,3718.92L1440.6,3718.92L1576.12,3355.27L2508.24,3355.27L2640.45,3718.92L3410.62,3718.92ZM2045.49,2096.14L2319.83,2839.97L1767.83,2839.97L2045.49,2096.14Z" style="fill-rule:nonzero;"/>
            <path d="M5245.8,2681.06L4197.46,1415.13L3553.18,1415.13L3553.18,3718.92L4256.92,3718.92L4256.92,2443.08L5308.57,3718.92L5952.85,3718.92L5952.85,1415.13L5245.8,1415.13L5245.8,2681.06Z" style="fill-rule:nonzero;"/>
            <path d="M7661.99,3718.92L7661.99,1993.25L8468.63,1993.25L8468.63,1415.13L6135.08,1415.13L6135.08,1993.25L6948.33,1993.25L6948.33,3718.92L7661.99,3718.92Z" style="fill-rule:nonzero;"/>
            <path d="M9943.26,3781.73C10829.3,3781.73 11348.1,3306.03 11348.1,2568.68C11348.1,1824.72 10839.2,1352.32 9943.26,1352.32C9060.5,1352.32 8538.47,1831.33 8538.47,2568.68C8538.47,3302.72 9060.5,3781.73 9943.26,3781.73ZM9943.26,3203.62C9480.3,3203.62 9242.21,2962.21 9242.21,2568.68C9242.21,2175.15 9480.3,1930.43 9943.26,1930.43C10406.2,1930.43 10637.7,2178.46 10637.7,2568.68C10637.7,2955.59 10406.2,3203.62 9943.26,3203.62Z" style="fill-rule:nonzero;"/>
            <rect x="11573.3" y="1415.13" width="713.659" height="2303.79" style="fill-rule:nonzero;"/>
            <path d="M14287.4,2681.06L13239.1,1415.13L12594.8,1415.13L12594.8,3718.92L13298.5,3718.92L13298.5,2443.08L14350.2,3718.92L14994.5,3718.92L14994.5,1415.13L14287.4,1415.13L14287.4,2681.06Z" style="fill-rule:nonzero;"/>
            <path d="M17229.2,3718.92L17229.2,3206.92L16006.1,3206.92L16006.1,2816.41L17166.4,2816.41L17166.4,2301.11L16006.1,2301.11L16006.1,1927.13L17229.2,1927.13L17229.2,1415.13L15302.3,1415.13L15302.3,3718.92L17229.2,3718.92Z" style="fill-rule:nonzero;"/>
        </g>
    </g>
</svg>
